<svg width="25" height="25" viewBox="0 0 25 25" fill="none" xmlns="http://www.w3.org/2000/svg">
<path d="M3.89111 11.8383L10.8911 11.8495C11.1563 11.8499 11.4108 11.7449 11.5987 11.5577C11.7865 11.3705 11.8923 11.1163 11.8927 10.8511L11.9039 3.85108C11.9043 3.58586 11.7994 3.33134 11.6121 3.1435C11.4249 2.95567 11.1707 2.8499 10.9055 2.84948L3.90552 2.83827C3.6403 2.83785 3.38578 2.9428 3.19794 3.13003C3.01011 3.31727 2.90434 3.57145 2.90392 3.83667L2.89271 10.8367C2.89228 11.1019 2.99723 11.3564 3.18447 11.5442C3.37171 11.7321 3.62589 11.8378 3.89111 11.8383ZM4.90231 4.83987L9.90231 4.84788L9.8943 9.84787L4.89431 9.83986L4.90231 4.83987Z" fill="#6C5DD3"/>
<path d="M14.8911 11.8559L21.8911 11.8671C22.1563 11.8675 22.4108 11.7626 22.5987 11.5753C22.7865 11.3881 22.8923 11.1339 22.8927 10.8687L22.9039 3.86869C22.9043 3.60347 22.7994 3.34895 22.6121 3.16111C22.4249 2.97328 22.1707 2.86751 21.9055 2.86709L14.9055 2.85588C14.6403 2.85546 14.3858 2.9604 14.1979 3.14764C14.0101 3.33488 13.9043 3.58906 13.9039 3.85428L13.8927 10.8543C13.8923 11.1195 13.9972 11.374 14.1845 11.5618C14.3717 11.7497 14.6259 11.8554 14.8911 11.8559ZM15.9023 4.85748L20.9023 4.86548L20.8943 9.86548L15.8943 9.85747L15.9023 4.85748Z" fill="#6C5DD3"/>
<path d="M3.87328 22.838L10.8733 22.8492C11.1385 22.8496 11.393 22.7446 11.5808 22.5574C11.7687 22.3702 11.8744 22.116 11.8749 21.8508L11.8861 14.8508C11.8865 14.5856 11.7816 14.331 11.5943 14.1432C11.4071 13.9554 11.1529 13.8496 10.8877 13.8492L3.88769 13.838C3.62248 13.8375 3.36796 13.9425 3.18012 14.1297C2.99228 14.317 2.88652 14.5711 2.88609 14.8364L2.87489 21.8364C2.87446 22.1016 2.97941 22.3561 3.16665 22.5439C3.35388 22.7318 3.60807 22.8375 3.87328 22.838ZM4.88449 15.8396L9.88448 15.8476L9.87648 20.8476L4.87648 20.8396L4.88449 15.8396Z" fill="#6C5DD3"/>
<path d="M14.8735 22.8556L21.8735 22.8668C22.1387 22.8672 22.3933 22.7622 22.5811 22.575C22.7689 22.3878 22.8747 22.1336 22.8751 21.8684L22.8863 14.8684C22.8868 14.6032 22.7818 14.3486 22.5946 14.1608C22.4073 13.973 22.1531 13.8672 21.8879 13.8668L14.8879 13.8556C14.6227 13.8551 14.3682 13.9601 14.1804 14.1473C13.9925 14.3346 13.8868 14.5888 13.8863 14.854L13.8751 21.854C13.8747 22.1192 13.9797 22.3737 14.1669 22.5615C14.3541 22.7494 14.6083 22.8551 14.8735 22.8556ZM15.8847 15.8572L20.8847 15.8652L20.8767 20.8652L15.8767 20.8572L15.8847 15.8572Z" fill="#6C5DD3"/>
</svg>
