<svg width="21" height="21" viewBox="0 0 21 21" fill="none" xmlns="http://www.w3.org/2000/svg">
<path d="M9.17554 14.3462L6.87887 16.6355L6.90383 1.04959C6.90425 0.784378 6.7993 0.529856 6.61207 0.342019C6.42483 0.154183 6.17065 0.0484191 5.90543 0.0479945C5.64021 0.0475699 5.38569 0.152519 5.19786 0.339755C5.01002 0.526991 4.90425 0.781176 4.90383 1.04639L4.87888 16.6323L2.58955 14.3357C2.40124 14.1532 2.1488 14.052 1.8866 14.0539C1.6244 14.0558 1.37342 14.1605 1.18771 14.3456C1.00201 14.5308 0.896438 14.7814 0.89374 15.0436C0.891042 15.3058 0.991431 15.5585 1.17329 15.7474L5.16688 19.7538C5.35428 19.9413 5.60838 20.0468 5.87346 20.0473C6.13854 20.0477 6.39298 19.943 6.58098 19.7561L10.5874 15.7625C10.7705 15.5743 10.8723 15.3217 10.8707 15.0591C10.8691 14.7965 10.7643 14.5451 10.5789 14.3591C10.3935 14.1732 10.1424 14.0676 9.87986 14.0652C9.61729 14.0627 9.3643 14.1637 9.17554 14.3462Z" fill="#AAAAAA"/>
<path d="M9.8989 4.05454L19.8989 4.07055C20.1641 4.07098 20.4186 3.96603 20.6065 3.77879C20.7943 3.59156 20.9001 3.33737 20.9005 3.07216C20.9009 2.80694 20.796 2.55242 20.6087 2.36459C20.4215 2.17675 20.1673 2.07099 19.9021 2.07056L9.9021 2.05455C9.63688 2.05412 9.38236 2.15907 9.19452 2.34631C9.00669 2.53354 8.90092 2.78773 8.9005 3.05294C8.90007 3.31816 9.00502 3.57268 9.19226 3.76052C9.3795 3.94835 9.63368 4.05412 9.8989 4.05454Z" fill="#AAAAAA"/>
<path d="M19.8957 6.07041L9.89575 6.0544C9.63053 6.05397 9.37601 6.15892 9.18818 6.34616C9.00034 6.53339 8.89458 6.78758 8.89415 7.05279C8.89373 7.31801 8.99868 7.57253 9.18591 7.76037C9.37315 7.9482 9.62733 8.05397 9.89255 8.05439L19.8925 8.0704C20.1578 8.07083 20.4123 7.96588 20.6001 7.77864C20.7879 7.59141 20.8937 7.33722 20.8941 7.07201C20.8946 6.80679 20.7896 6.55227 20.6024 6.36443C20.4151 6.1766 20.161 6.07083 19.8957 6.07041Z" fill="#AAAAAA"/>
<path d="M16.8894 10.0655L9.8894 10.0542C9.62419 10.0538 9.36966 10.1588 9.18183 10.346C8.99399 10.5332 8.88823 10.7874 8.8878 11.0526C8.88738 11.3179 8.99233 11.5724 9.17956 11.7602C9.3668 11.9481 9.62098 12.0538 9.8862 12.0543L16.8862 12.0655C17.1514 12.0659 17.4059 11.9609 17.5938 11.7737C17.7816 11.5865 17.8874 11.3323 17.8878 11.0671C17.8882 10.8018 17.7833 10.5473 17.596 10.3595C17.4088 10.1716 17.1546 10.0659 16.8894 10.0655Z" fill="#AAAAAA"/>
</svg>
