<svg width="25" height="25" viewBox="0 0 25 25" fill="none" xmlns="http://www.w3.org/2000/svg">
<path d="M3.90061 5.77085L21.9006 5.79967C22.1658 5.8001 22.4203 5.69515 22.6082 5.50791C22.796 5.32068 22.9018 5.06649 22.9022 4.80128C22.9026 4.53606 22.7977 4.28154 22.6104 4.0937C22.4232 3.90587 22.169 3.8001 21.9038 3.79968L3.90381 3.77086C3.63859 3.77043 3.38407 3.87538 3.19623 4.06262C3.0084 4.24985 2.90263 4.50404 2.90221 4.76925C2.90178 5.03447 3.00673 5.28899 3.19397 5.47683C3.3812 5.66466 3.63539 5.77043 3.90061 5.77085Z" fill="#AAAAAA"/>
<path d="M3.88791 13.771L21.8879 13.7998C22.1531 13.8003 22.4076 13.6953 22.5955 13.5081C22.7833 13.3208 22.8891 13.0667 22.8895 12.8014C22.8899 12.5362 22.785 12.2817 22.5977 12.0939C22.4105 11.906 22.1563 11.8003 21.8911 11.7998L3.89111 11.771C3.6259 11.7706 3.37137 11.8755 3.18354 12.0628C2.9957 12.25 2.88994 12.5042 2.88951 12.7694C2.88909 13.0346 2.99404 13.2892 3.18127 13.477C3.36851 13.6648 3.62269 13.7706 3.88791 13.771Z" fill="#AAAAAA"/>
<path d="M3.87497 21.7707L21.8749 21.7995C22.1402 21.7999 22.3947 21.695 22.5825 21.5077C22.7704 21.3205 22.8761 21.0663 22.8765 20.8011C22.877 20.5359 22.772 20.2814 22.5848 20.0935C22.3976 19.9057 22.1434 19.7999 21.8781 19.7995L3.87817 19.7707C3.61296 19.7702 3.35843 19.8752 3.1706 20.0624C2.98276 20.2497 2.877 20.5039 2.87657 20.7691C2.87615 21.0343 2.9811 21.2888 3.16833 21.4767C3.35557 21.6645 3.60975 21.7703 3.87497 21.7707Z" fill="#AAAAAA"/>
</svg>
