<svg width="25" height="25" viewBox="0 0 25 25" fill="none" xmlns="http://www.w3.org/2000/svg">
<path d="M3.87325 22.9055L21.8732 22.9343C22.1384 22.9347 22.393 22.8298 22.5808 22.6425C22.7686 22.4553 22.8744 22.2011 22.8748 21.9359L22.9036 3.93592C22.9041 3.67071 22.7991 3.41618 22.6119 3.22835C22.4247 3.04051 22.1705 2.93475 21.9052 2.93432L3.90527 2.9055C3.64006 2.90508 3.38553 3.01003 3.1977 3.19726C3.00986 3.3845 2.9041 3.63868 2.90367 3.9039L2.87485 21.9039C2.87443 22.1691 2.97938 22.4236 3.16661 22.6115C3.35385 22.7993 3.60803 22.9051 3.87325 22.9055ZM13.9021 4.92151L20.902 4.93272L20.8908 11.9327L13.8908 11.9215L13.9021 4.92151ZM13.8876 13.9215L20.8876 13.9327L20.8764 20.9327L13.8764 20.9215L13.8876 13.9215ZM4.90207 4.9071L11.9021 4.91831L11.8764 20.9183L4.87645 20.9071L4.90207 4.9071Z" fill="#AAAAAA"/>
</svg>
