<svg width="20" height="20" viewBox="0 0 20 20" fill="none" xmlns="http://www.w3.org/2000/svg">
<path d="M9.9999 0.399994C4.6983 0.399994 0.399902 4.69839 0.399902 9.99999C0.399902 12.1024 1.0767 14.0488 2.2263 15.6304L0.906302 19.1008L4.7151 18.016C6.2295 19.0168 8.0463 19.6 9.9999 19.6C15.3015 19.6 19.5999 15.3016 19.5999 9.99999C19.5999 4.69839 15.3015 0.399994 9.9999 0.399994ZM15.1023 13.9768L14.0799 14.9992C13.0047 16.0744 10.1535 14.8912 7.6263 12.364C5.0967 9.83439 3.9663 6.98319 4.9887 5.90799L6.0111 4.88559C6.3879 4.50879 7.0335 4.50879 7.4631 4.88559L8.9703 6.39279C9.5079 6.93039 9.2919 7.84479 8.5935 8.05839C8.1087 8.22159 7.7871 8.75919 7.9479 9.24399C8.2167 10.372 9.6687 11.7712 10.7463 12.04C11.2287 12.148 11.7687 11.8792 11.9295 11.3944C12.1431 10.696 13.0599 10.48 13.5975 11.0176L15.1023 12.5248C15.4791 12.9016 15.4791 13.5472 15.1023 13.9768Z" fill="white"/>
</svg>
